HIERARCHY
ROOT Hips
{
  OFFSET -311.755 91.4452 1192.23
  CHANNELS 6 Xposition Yposition Zposition Zrotation Xrotation Yrotation
  JOINT Spine
  {
    OFFSET 0 8 0
    CHANNELS 6 Xposition Yposition Zposition Zrotation Xrotation Yrotation
    JOINT Spine1
    {
      OFFSET 0 8 0
      CHANNELS 6 Xposition Yposition Zposition Zrotation Xrotation Yrotation
      JOINT Spine2
      {
        OFFSET 0 8 0
        CHANNELS 6 Xposition Yposition Zposition Zrotation Xrotation Yrotation
        JOINT Spine3
        {
          OFFSET 0 8 0
          CHANNELS 6 Xposition Yposition Zposition Zrotation Xrotation Yrotation
          JOINT Neck
          {
            OFFSET 0 17 0
            CHANNELS 6 Xposition Yposition Zposition Zrotation Xrotation Yrotation
            JOINT Head
            {
              OFFSET 0 10.8 0
              CHANNELS 6 Xposition Yposition Zposition Zrotation Xrotation Yrotation
              End Site
              {
                OFFSET 0 20.25 0
              }
            }
          }
          JOINT LeftShoulder
          {
            OFFSET 5 17 0
            CHANNELS 6 Xposition Yposition Zposition Zrotation Xrotation Yrotation
            JOINT LeftShoulder2
            {
              OFFSET 6.45 0 0
              CHANNELS 6 Xposition Yposition Zposition Zrotation Xrotation Yrotation
              JOINT LeftArm
              {
                OFFSET 6.45 0 0
                CHANNELS 6 Xposition Yposition Zposition Zrotation Xrotation Yrotation
                JOINT LeftForeArm
                {
                  OFFSET 0 -32.4 -2
                  CHANNELS 6 Xposition Yposition Zposition Zrotation Xrotation Yrotation
                  JOINT LeftHand
                  {
                    OFFSET 0 -25.65 2
                    CHANNELS 6 Xposition Yposition Zposition Zrotation Xrotation Yrotation
                    JOINT LeftHandThumb1
                    {
                      OFFSET -0.5 -1.5 2.65
                      CHANNELS 6 Xposition Yposition Zposition Zrotation Xrotation Yrotation
                      JOINT LeftHandThumb2
                      {
                        OFFSET 0 -3.8 3.7
                        CHANNELS 6 Xposition Yposition Zposition Zrotation Xrotation Yrotation
                        JOINT LeftHandThumb3
                        {
                          OFFSET 0 -3 2.7
                          CHANNELS 6 Xposition Yposition Zposition Zrotation Xrotation Yrotation
                          End Site
                          {
                            OFFSET 0 -2.3 1.8
                          }
                        }
                      }
                    }
                    JOINT LeftHandIndex
                    {
                      OFFSET 0 -1.9 1.6
                      CHANNELS 6 Xposition Yposition Zposition Zrotation Xrotation Yrotation
                      JOINT LeftHandIndex1
                      {
                        OFFSET 0 -8.3 1.9
                        CHANNELS 6 Xposition Yposition Zposition Zrotation Xrotation Yrotation
                        JOINT LeftHandIndex2
                        {
                          OFFSET 0 -4.5 0
                          CHANNELS 6 Xposition Yposition Zposition Zrotation Xrotation Yrotation
                          JOINT LeftHandIndex3
                          {
                            OFFSET 0 -3.4 0
                            CHANNELS 6 Xposition Yposition Zposition Zrotation Xrotation Yrotation
                            End Site
                            {
                              OFFSET 0 -2.6 0
                            }
                          }
                        }
                      }
                    }
                    JOINT LeftHandMiddle
                    {
                      OFFSET -0.25 -2.2 0.4
                      CHANNELS 6 Xposition Yposition Zposition Zrotation Xrotation Yrotation
                      JOINT LeftHandMiddle1
                      {
                        OFFSET 0 -8.3 1
                        CHANNELS 6 Xposition Yposition Zposition Zrotation Xrotation Yrotation
                        JOINT LeftHandMiddle2
                        {
                          OFFSET 0 -4.65 0
                          CHANNELS 6 Xposition Yposition Zposition Zrotation Xrotation Yrotation
                          JOINT LeftHandMiddle3
                          {
                            OFFSET 0 -3.3 0
                            CHANNELS 6 Xposition Yposition Zposition Zrotation Xrotation Yrotation
                            End Site
                            {
                              OFFSET 0 -2.7 0
                            }
                          }
                        }
                      }
                    }
                    JOINT LeftHandRing
                    {
                      OFFSET -0.5 -2.15 -0.8
                      CHANNELS 6 Xposition Yposition Zposition Zrotation Xrotation Yrotation
                      JOINT LeftHandRing1
                      {
                        OFFSET 0 -7.75 -0.2
                        CHANNELS 6 Xposition Yposition Zposition Zrotation Xrotation Yrotation
                        JOINT LeftHandRing2
                        {
                          OFFSET 0 -3.8 0
                          CHANNELS 6 Xposition Yposition Zposition Zrotation Xrotation Yrotation
                          JOINT LeftHandRing3
                          {
                            OFFSET 0 -3.4 0
                            CHANNELS 6 Xposition Yposition Zposition Zrotation Xrotation Yrotation
                            End Site
                            {
                              OFFSET 0 -2.6 0
                            }
                          }
                        }
                      }
                    }
                    JOINT LeftHandPinky
                    {
                      OFFSET -0.75 -1.75 -1.85
                      CHANNELS 6 Xposition Yposition Zposition Zrotation Xrotation Yrotation
                      JOINT LeftHandPinky1
                      {
                        OFFSET 0 -7.15 -1
                        CHANNELS 6 Xposition Yposition Zposition Zrotation Xrotation Yrotation
                        JOINT LeftHandPinky2
                        {
                          OFFSET 0 -3 0
                          CHANNELS 6 Xposition Yposition Zposition Zrotation Xrotation Yrotation
                          JOINT LeftHandPinky3
                          {
                            OFFSET 0 -2.35 0
                            CHANNELS 6 Xposition Yposition Zposition Zrotation Xrotation Yrotation
                            End Site
                            {
                              OFFSET 0 -2.1 0
                            }
                          }
                        }
                      }
                    }
                  }
                }
              }
            }
          }
          JOINT RightShoulder
          {
            OFFSET -5 17 0
            CHANNELS 6 Xposition Yposition Zposition Zrotation Xrotation Yrotation
            JOINT RightShoulder2
            {
              OFFSET -6.45 0 0
              CHANNELS 6 Xposition Yposition Zposition Zrotation Xrotation Yrotation
              JOINT RightArm
              {
                OFFSET -6.45 0 0
                CHANNELS 6 Xposition Yposition Zposition Zrotation Xrotation Yrotation
                JOINT RightForeArm
                {
                  OFFSET 0 -32.4 -2
                  CHANNELS 6 Xposition Yposition Zposition Zrotation Xrotation Yrotation
                  JOINT RightHand
                  {
                    OFFSET 0 -25.65 2
                    CHANNELS 6 Xposition Yposition Zposition Zrotation Xrotation Yrotation
                    JOINT RightHandThumb1
                    {
                      OFFSET 0.5 -1.5 2.65
                      CHANNELS 6 Xposition Yposition Zposition Zrotation Xrotation Yrotation
                      JOINT RightHandThumb2
                      {
                        OFFSET 0 -3.8 3.7
                        CHANNELS 6 Xposition Yposition Zposition Zrotation Xrotation Yrotation
                        JOINT RightHandThumb3
                        {
                          OFFSET 0 -3 2.7
                          CHANNELS 6 Xposition Yposition Zposition Zrotation Xrotation Yrotation
                          End Site
                          {
                            OFFSET 0 -2.3 1.8
                          }
                        }
                      }
                    }
                    JOINT RightHandIndex
                    {
                      OFFSET 0 -1.9 1.6
                      CHANNELS 6 Xposition Yposition Zposition Zrotation Xrotation Yrotation
                      JOINT RightHandIndex1
                      {
                        OFFSET 0 -8.3 1.9
                        CHANNELS 6 Xposition Yposition Zposition Zrotation Xrotation Yrotation
                        JOINT RightHandIndex2
                        {
                          OFFSET 0 -4.5 0
                          CHANNELS 6 Xposition Yposition Zposition Zrotation Xrotation Yrotation
                          JOINT RightHandIndex3
                          {
                            OFFSET 0 -3.4 0
                            CHANNELS 6 Xposition Yposition Zposition Zrotation Xrotation Yrotation
                            End Site
                            {
                              OFFSET 0 -2.6 0
                            }
                          }
                        }
                      }
                    }
                    JOINT RightHandMiddle
                    {
                      OFFSET 0.25 -2.2 0.4
                      CHANNELS 6 Xposition Yposition Zposition Zrotation Xrotation Yrotation
                      JOINT RightHandMiddle1
                      {
                        OFFSET 0 -8.3 1
                        CHANNELS 6 Xposition Yposition Zposition Zrotation Xrotation Yrotation
                        JOINT RightHandMiddle2
                        {
                          OFFSET 0 -4.65 0
                          CHANNELS 6 Xposition Yposition Zposition Zrotation Xrotation Yrotation
                          JOINT RightHandMiddle3
                          {
                            OFFSET 0 -3.3 0
                            CHANNELS 6 Xposition Yposition Zposition Zrotation Xrotation Yrotation
                            End Site
                            {
                              OFFSET 0 -2.7 0
                            }
                          }
                        }
                      }
                    }
                    JOINT RightHandRing
                    {
                      OFFSET 0.5 -2.15 -0.8
                      CHANNELS 6 Xposition Yposition Zposition Zrotation Xrotation Yrotation
                      JOINT RightHandRing1
                      {
                        OFFSET 0 -7.75 -0.2
                        CHANNELS 6 Xposition Yposition Zposition Zrotation Xrotation Yrotation
                        JOINT RightHandRing2
                        {
                          OFFSET 0 -3.8 0
                          CHANNELS 6 Xposition Yposition Zposition Zrotation Xrotation Yrotation
                          JOINT RightHandRing3
                          {
                            OFFSET 0 -3.4 0
                            CHANNELS 6 Xposition Yposition Zposition Zrotation Xrotation Yrotation
                            End Site
                            {
                              OFFSET 0 -2.6 0
                            }
                          }
                        }
                      }
                    }
                    JOINT RightHandPinky
                    {
                      OFFSET 0.75 -1.75 -1.85
                      CHANNELS 6 Xposition Yposition Zposition Zrotation Xrotation Yrotation
                      JOINT RightHandPinky1
                      {
                        OFFSET 0 -7.15 -1
                        CHANNELS 6 Xposition Yposition Zposition Zrotation Xrotation Yrotation
                        JOINT RightHandPinky2
                        {
                          OFFSET 0 -3 0
                          CHANNELS 6 Xposition Yposition Zposition Zrotation Xrotation Yrotation
                          JOINT RightHandPinky3
                          {
                            OFFSET 0 -2.35 0
                            CHANNELS 6 Xposition Yposition Zposition Zrotation Xrotation Yrotation
                            End Site
                            {
                              OFFSET 0 -2.1 0
                            }
                          }
                        }
                      }
                    }
                  }
                }
              }
            }
          }
        }
      }
    }
  }
  JOINT LeftUpLeg
  {
    OFFSET 8 0 0
    CHANNELS 6 Xposition Yposition Zposition Zrotation Xrotation Yrotation
    JOINT LeftLeg
    {
      OFFSET 0 -45 -1
      CHANNELS 6 Xposition Yposition Zposition Zrotation Xrotation Yrotation
      JOINT LeftFoot
      {
        OFFSET 0 -41 -2
        CHANNELS 6 Xposition Yposition Zposition Zrotation Xrotation Yrotation
        JOINT LeftToeBase
        {
          OFFSET 0 -7.5 12.5
          CHANNELS 6 Xposition Yposition Zposition Zrotation Xrotation Yrotation
          JOINT LeftFootToe
          {
            OFFSET 0 0 4
            CHANNELS 6 Xposition Yposition Zposition Zrotation Xrotation Yrotation
            End Site
            {
              OFFSET 0 0 0
            }
          }
        }
      }
    }
  }
  JOINT RightUpLeg
  {
    OFFSET -8 0 0
    CHANNELS 6 Xposition Yposition Zposition Zrotation Xrotation Yrotation
    JOINT RightLeg
    {
      OFFSET 0 -45 -1
      CHANNELS 6 Xposition Yposition Zposition Zrotation Xrotation Yrotation
      JOINT RightFoot
      {
        OFFSET 0 -41 -2
        CHANNELS 6 Xposition Yposition Zposition Zrotation Xrotation Yrotation
        JOINT RightToeBase
        {
          OFFSET 0 -7.5 12.5
          CHANNELS 6 Xposition Yposition Zposition Zrotation Xrotation Yrotation
          JOINT RightFootToe
          {
            OFFSET 0 0 4
            CHANNELS 6 Xposition Yposition Zposition Zrotation Xrotation Yrotation
            End Site
            {
              OFFSET 0 0 0
            }
          }
        }
      }
    }
  }
}
MOTION
Frames:	3
Frame Time:	0.0111111
-308.383 90.9896 1197.61 -12.6544 -13.2055 116.039 0 8 0 -3.63948 21.9005 14.3313 -1.13687e-13 8 0 -4.61454 9.01802 4.73604 1.13687e-13 8 1.13687e-13 -2.21188 4.56692 2.275 1.13687e-13 8 0 -2.20121 4.546 2.26404 0 17 0 -3.18119 2.34949 2.83872 5.68434e-14 10.8 1.13687e-13 -7.62058 5.23053 6.84008 5 17 -1.13687e-13 -16.6622 -8.9355 18.6483 6.45 -1.13687e-13 1.13687e-13 -0.255449 -1.71855 2.26047 6.45 -1.13687e-13 2.27374e-13 5.32299 31.4336 35.3114 1.98952e-13 -32.4 -2 -143.967 -54.8078 164.718 1.13687e-13 -25.65 2 1.52019 0.11717 -19.242 -0.5 -1.5 2.65 21.5573 3.24135 116.66 0 -3.8 3.7 -0.0786815 30.9065 0.0198686 0 -3 2.7 -0.0464326 64.6995 0.0414231 -1.13687e-13 -1.9 1.6 -6.36111e-15 -6.53505e-15 8.19987e-16 0 -8.3 1.9 -31.8661 -31.597 -8.4172 0 -4.5 -5.68434e-14 8.3099e-09 -0.000885648 0.000537598 0 -3.4 0 8.06891e-09 -0.00087621 0.000527629 -0.25 -2.2 0.4 -6.36111e-15 -6.53505e-15 8.19987e-16 0 -8.3 1 -30.4556 -29.1656 -6.7741 0 -4.65 -8.52651e-14 -12.2804 -3.32011e-05 0.000995644 0 -3.3 5.68434e-14 6.03749 -0.0071345 -0.00144985 -0.5 -2.15 -0.8 -6.36111e-15 -6.53505e-15 8.19987e-16 -1.13687e-13 -7.75 -0.2 -46.6875 -15.9371 -10.3174 0 -3.8 2.84217e-14 -1.77348 -0.0054744 0.00844246 2.27374e-13 -3.4 0 -80.5716 0.00114984 -4.7438e-05 -0.75 -1.75 -1.85 -6.36111e-15 -6.53505e-15 8.19987e-16 1.13687e-13 -7.15 -1 -0.0117322 -0.891872 0.00582628 1.13687e-13 -3 5.68434e-14 -16.6638 0.00012559 0.00163354 0 -2.35 5.68434e-14 14.1236 0.000258209 0.00264448 -5 17 0 -2.64773 -1.27942 9.06814 -6.45 1.13687e-13 0 -3.05377 0.490788 -2.88161 -6.45 -1.13687e-13 1.13687e-13 -80.5985 -34.9628 2.35554 -1.13687e-13 -32.4 -2 76.1771 -77.6126 66.6733 0 -25.65 2 5.9713 10.6603 -3.70186 0.5 -1.5 2.65 4.23289 2.11585 2.28137 0 -3.8 3.7 0.691105 1.62035 -0.220681 0 -3 2.7 0.0782087 40.3359 -0.0521076 2.27374e-13 -1.9 1.6 -4.41391e-31 -7.95139e-15 -3.18055e-15 0 -8.3 1.9 0.834144 3.88687 -0.21711 0 -4.5 -5.68434e-14 5.60942 -0.0780635 -0.21789 0 -3.4 0 4.52337 -0.0814345 -0.167699 0.25 -2.2 0.4 -4.41391e-31 -7.95139e-15 -3.18055e-15 -2.27374e-13 -8.3 1 7.03511 5.47226 -0.762095 0 -4.65 0 73.7076 -0.168813 0.0302165 0 -3.3 1.13687e-13 57.363 -0.0892473 0.210078 0.5 -2.15 -0.8 -4.41391e-31 -7.95139e-15 -3.18055e-15 0 -7.75 -0.2 18.4472 7.3982 -2.07655 -2.27374e-13 -3.8 1.13687e-13 34.607 -0.0418497 0.0158562 0 -3.4 1.7053e-13 24.8496 -0.0189134 0.0190677 0.75 -1.75 -1.85 -4.41391e-31 -7.95139e-15 -3.18055e-15 0 -7.15 -1 24.048 3.7282 -1.82182 0 -3 0 31.2513 -0.00705167 8.13579e-05 0 -2.35 -1.13687e-13 22.8403 -0.00314812 0.00471532 8 0 0 10.2253 -33.112 -33.8574 -2.27374e-13 -45 -1 0.222695 20.0627 -1.73528 0 -41 -2 -12.0753 -8.98327 19.3866 0 -7.5 12.5 3.05587e-19 -0.00297829 -1.59028e-15 2.27374e-13 1.38778e-17 4 13.2115 -1.49079 79.5943 -8 2.84217e-14 0 -6.45106 -17.9237 -53.0842 2.27374e-13 -45 -1 -0.0915097 16.8778 0.908282 0 -41 -2 6.98321 -6.95999 6.67118 0 -7.5 12.5 -7.95206e-16 0.000602628 6.36111e-15 0 0 4 -4.96486 8.47967 53.4636 
-308.389 90.9906 1197.59 -12.7258 -13.1977 115.975 0 8 -1.13687e-13 -3.63912 21.9214 14.3134 -1.13687e-13 8 1.13687e-13 -4.63997 9.03823 4.7283 2.27374e-13 8 0 -2.22451 4.57727 2.27039 0 8 0 -2.21374 4.55622 2.25941 5.68434e-14 17 0 -3.23462 2.32337 2.86681 -1.13687e-13 10.8 -1.13687e-13 -7.74494 5.16285 6.9064 5 17 1.13687e-13 -16.7466 -8.98753 18.7327 6.45 -1.13687e-13 0 -0.265354 -1.72819 2.24553 6.45 0 1.13687e-13 5.36157 31.4442 35.2943 2.27374e-13 -32.4 -2 -144.511 -54.8417 164.136 1.13687e-13 -25.65 2 1.50694 0.115048 -19.2531 -0.5 -1.5 2.65 21.6388 3.68311 116.642 1.13687e-13 -3.8 3.7 -0.0787365 31.4928 0.0197208 0 -3 2.7 -0.0684619 64.8422 0.065786 0 -1.9 1.6 -1.27222e-14 -2.75814e-15 6.5102e-15 2.27374e-13 -8.3 1.9 -31.9549 -31.6011 -8.44244 0 -4.5 0 8.32199e-09 -0.000886444 0.000537896 0 -3.4 0 8.08066e-09 -0.000877 0.000527922 -0.25 -2.2 0.4 -1.27222e-14 -2.75814e-15 6.5102e-15 0 -8.3 1 -30.5799 -29.143 -6.79723 0 -4.65 2.84217e-14 -12.2804 -3.17541e-05 0.000992013 -2.27374e-13 -3.3 -5.68434e-14 6.35674 -0.00715547 -0.00143165 -0.5 -2.15 -0.8 -1.27222e-14 -2.75814e-15 6.5102e-15 -1.13687e-13 -7.75 -0.2 -46.6792 -15.8204 -10.1295 -2.27374e-13 -3.8 5.68434e-14 -1.77348 -0.0054744 0.00844246 2.27374e-13 -3.4 2.84217e-14 -80.4925 0.0012462 1.11319e-13 -0.75 -1.75 -1.85 -1.27222e-14 -2.75814e-15 6.5102e-15 2.27374e-13 -7.15 -1 -0.0107283 -0.840084 0.00573057 0 -3 -5.68434e-14 -16.6638 0.000141631 0.00168971 -2.27374e-13 -2.35 0 14.0231 0.000493221 0.00269238 -5 17 0 -2.71705 -1.28256 9.05966 -6.45 0 -1.13687e-13 -3.0542 0.488253 -2.87735 -6.45 0 0 -81.3553 -35.5114 1.96488 0 -32.4 -2 74.6718 -77.2619 64.9742 -1.13687e-13 -25.65 2 7.33442 10.7102 -4.10425 0.5 -1.5 2.65 3.51321 1.43351 1.71071 0 -3.8 3.7 0.548483 1.95147 -0.199182 0 -3 2.7 0.063066 40.7882 -0.0519329 0 -1.9 1.6 7.06225e-31 -6.36111e-15 6.36111e-15 2.27374e-13 -8.3 1.9 0.3891 2.19982 -0.136288 0 -4.5 0 2.63508 -0.0454572 -0.113274 0 -3.4 5.68434e-14 2.23475 -0.0447562 -0.0935041 0.25 -2.2 0.4 7.06225e-31 -6.36111e-15 6.36111e-15 0 -8.3 1 4.64929 3.78555 -0.432858 0 -4.65 0 72.1976 -0.161305 0.0404169 0 -3.3 5.68434e-14 55.4313 -0.076144 0.208899 0.5 -2.15 -0.8 7.06225e-31 -6.36111e-15 6.36111e-15 0 -7.75 -0.2 13.1322 6.4917 -1.32228 -2.27374e-13 -3.8 1.13687e-13 33.9899 -0.0452305 0.0236765 0 -3.4 1.13687e-13 24.4815 -0.0188361 0.0245855 0.75 -1.75 -1.85 7.06225e-31 -6.36111e-15 6.36111e-15 0 -7.15 -1 17.0888 3.42472 -1.16779 2.27374e-13 -3 -1.13687e-13 31.6956 -0.00860308 0.00231161 2.27374e-13 -2.35 0 23.1063 -0.00366399 0.0046286 8 0 0 10.1987 -33.1498 -33.8671 0 -45 -1 0.218449 20.0643 -1.71661 0 -41 -2 -12.0624 -8.993 19.4015 2.27374e-13 -7.5 12.5 -1.05316e-18 -0.00297362 -1.59028e-15 0 -1.38778e-17 4 13.1954 -1.48465 79.5935 -8 0 -1.13687e-13 -6.49585 -17.9925 -53.0614 2.27374e-13 -45 -1 -0.0876081 16.8901 0.893427 0 -41 -2 6.98953 -6.9499 6.68805 -2.27374e-13 -7.5 12.5 -7.9475e-16 0.000601757 -0 0 -6.93889e-18 4 -4.95997 8.46418 53.4609 
-308.396 90.9918 1197.57 -12.7947 -13.1833 115.921 1.13687e-13 8 0 -3.63433 21.953 14.3014 -1.13687e-13 8 -1.13687e-13 -4.66498 9.0602 4.72456 -1.13687e-13 8 0 -2.2371 4.58853 2.27105 1.13687e-13 8 0 -2.22622 4.56733 2.26001 1.13687e-13 17 0 -3.28631 2.29322 2.88835 -5.68434e-14 10.8 0 -7.86438 5.08639 6.95677 5 17 0 -16.8424 -9.03146 18.8156 6.45 -1.13687e-13 0 -0.280732 -1.7403 2.22698 6.45 0 2.27374e-13 5.40016 31.4548 35.2772 2.27374e-13 -32.4 -2 -144.924 -54.8816 163.7 0 -25.65 2 1.4937 0.112927 -19.2643 -0.5 -1.5 2.65 21.6968 4.13965 116.663 1.13687e-13 -3.8 3.7 -0.0765454 31.9731 0.0153886 -1.13687e-13 -3 2.7 -0.0827812 65.2283 0.0814195 -2.27374e-13 -1.9 1.6 3.18055e-15 -1.59028e-15 9.44227e-16 1.13687e-13 -8.3 1.9 -32.0925 -31.607 -8.48119 -2.27374e-13 -4.5 -5.68434e-14 8.33385e-09 -0.000887227 0.000538187 2.27374e-13 -3.4 -5.68434e-14 8.09221e-09 -0.000877779 0.000528207 -0.25 -2.2 0.4 3.18055e-15 -1.59028e-15 9.44227e-16 0 -8.3 1 -30.6913 -29.1176 -6.81737 0 -4.65 0 -12.2804 -3.03163e-05 0.000988353 0 -3.3 5.68434e-14 6.7954 -0.00717628 -0.00141649 -0.5 -2.15 -0.8 3.18055e-15 -1.59028e-15 9.44227e-16 -1.13687e-13 -7.75 -0.2 -46.6649 -15.6975 -9.92324 -2.27374e-13 -3.8 0 -1.77348 -0.0054744 0.00844246 0 -3.4 0 -80.4983 0.00134259 -4.49253e-14 -0.75 -1.75 -1.85 3.18055e-15 -1.59028e-15 9.44227e-16 1.13687e-13 -7.15 -1 -0.0099546 -0.811809 0.00563561 0 -3 0 -16.6638 0.00015976 0.00174877 0 -2.35 -5.68434e-14 13.8782 0.000722732 0.00274196 -5 17 0 -2.78503 -1.282 9.05992 -6.45 0 0 -3.0546 0.4858 -2.8758 -6.45 -1.13687e-13 0 -82.1041 -36.0451 1.6044 -2.27374e-13 -32.4 -2 73.2425 -76.9173 63.4392 0 -25.65 2 8.43354 10.6507 -4.40455 0.5 -1.5 2.65 2.94101 1.04035 1.16893 0 -3.8 3.7 0.423102 2.32406 -0.186352 0 -3 2.7 0.0510954 41.0932 -0.0516854 0 -1.9 1.6 1.41245e-30 -6.36111e-15 1.27222e-14 0 -8.3 1.9 0.167457 0.78603 -0.0648964 0 -4.5 0 0.587208 -0.0136175 -0.0259228 0 -3.4 0 0.551555 -0.0132509 -0.0241461 0.25 -2.2 0.4 1.41245e-30 -6.36111e-15 1.27222e-14 2.27374e-13 -8.3 1 2.77361 2.38343 -0.209071 0 -4.65 -1.13687e-13 70.7605 -0.115953 0.0410143 0 -3.3 0 53.4652 -0.0441014 0.157965 0.5 -2.15 -0.8 1.41245e-30 -6.36111e-15 1.27222e-14 0 -7.75 -0.2 8.43664 5.62101 -0.758336 0 -3.8 -5.68434e-14 33.4013 -0.0373531 0.0293089 0 -3.4 0 24.13 -0.0132291 0.0259637 0.75 -1.75 -1.85 1.41245e-30 -6.36111e-15 1.27222e-14 -2.27374e-13 -7.15 -1 10.8445 3.17872 -0.672188 2.27374e-13 -3 -1.13687e-13 32.2638 -0.00900115 0.00376599 -2.27374e-13 -2.35 -1.13687e-13 23.4459 -0.00402176 0.00425961 8 -5.68434e-14 0 10.166 -33.1763 -33.8844 0 -45 -1 0.211979 20.0452 -1.69772 0 -41 -2 -12.0494 -8.99185 19.4214 2.27374e-13 -7.5 12.5 -7.76503e-19 -0.00296896 -0 0 3.46945e-18 4 13.1796 -1.47953 79.5929 -8 2.84217e-14 0 -6.54508 -18.0547 -53.0377 0 -45 -1 -0.084377 16.8971 0.880648 -2.27374e-13 -41 -2 6.99453 -6.93993 6.7003 -2.27374e-13 -7.5 12.5 -7.94817e-16 0.000600883 6.36111e-15 2.27374e-13 0 4 -4.95792 8.45101 53.4589 
